<svg width="25" height="35" viewBox="0 0 25 35" fill="none" xmlns="http://www.w3.org/2000/svg">
<path fill-rule="evenodd" clip-rule="evenodd" d="M14.5252 39.7092L14.5252 18.7224C14.5252 18.6224 14.5252 18.4226 14.5252 18.3226L22.0631 22.9197C22.9442 23.5194 24.2168 23.2196 24.7063 22.2202C25.0979 21.6206 25.0979 20.8211 24.7063 20.2214L14.2315 1.33326C13.7421 0.333883 12.4694 0.0340702 11.5884 0.533757C11.2947 0.733632 11.001 1.03344 10.8052 1.33326L0.23252 20.2214C-0.256955 21.2208 0.0367289 22.4201 1.01568 22.9197C1.70095 23.3195 2.48411 23.2196 3.07148 22.8198L10.5115 18.2227C10.5115 18.3226 10.5115 18.5225 10.5115 18.6224L10.5115 39.6093L14.5252 39.7092Z" fill="white"/>
</svg>
