<?xml version="1.0"?>
<svg xmlns="http://www.w3.org/2000/svg" xmlns:xlink="http://www.w3.org/1999/xlink" version="1.1" xml:space="preserve">
	<defs>
		<symbol id="email" width="100%" height="100%" viewBox="0 0 22 18">
			<path fill-rule="evenodd" clip-rule="evenodd" d="M1.37868 1.71193C0.5 2.59061 0.5 4.00482 0.5 6.83325V11.1666C0.5 13.995 0.5 15.4092 1.37868 16.2879C2.25736 17.1666 3.67157 17.1666 6.5 17.1666H15.5C18.3284 17.1666 19.7426 17.1666 20.6213 16.2879C21.5 15.4092 21.5 13.995 21.5 11.1666V6.83325C21.5 4.00483 21.5 2.59061 20.6213 1.71193C19.7426 0.833252 18.3284 0.833252 15.5 0.833252H6.5C3.67157 0.833252 2.25736 0.833252 1.37868 1.71193ZM4.5547 4.66787C4.09517 4.36152 3.4743 4.48569 3.16795 4.94522C2.8616 5.40475 2.98577 6.02562 3.4453 6.33197L9.8906 10.6288C10.5624 11.0767 11.4376 11.0767 12.1094 10.6288L18.5547 6.33197C19.0142 6.02562 19.1384 5.40475 18.8321 4.94522C18.5257 4.48569 17.9048 4.36152 17.4453 4.66787L11 8.96474L4.5547 4.66787Z" fill="currentColor" />
		</symbol>
		<symbol id="phone" width="100%" height="100%" viewBox="0 0 22 22">
			<path d="M0.599998 1.9001C0.599998 1.18213 1.18203 0.600098 1.9 0.600098H4.69873C5.33422 0.600098 5.87657 1.05953 5.98105 1.68638L6.94215 7.45301C7.03597 8.01596 6.75167 8.57426 6.24122 8.82949L4.22864 9.83578C5.67982 13.4419 8.55818 16.3203 12.1643 17.7715L13.1706 15.7589C13.4258 15.2484 13.9841 14.9641 14.5471 15.0579L20.3137 16.019C20.9406 16.1235 21.4 16.6659 21.4 17.3014V20.1001C21.4 20.8181 20.818 21.4001 20.1 21.4001H17.5C8.16639 21.4001 0.599998 13.8337 0.599998 4.5001V1.9001Z" fill="currentColor" />
		</symbol>
		<symbol id="menu" width="100%" height="100%" viewBox="0 0 20 18">
			<path fill-rule="evenodd" clip-rule="evenodd" d="M0.199951 2.0001C0.199951 1.2269 0.826752 0.600098 1.59995 0.600098H18.4C19.1732 0.600098 19.8 1.2269 19.8 2.0001C19.8 2.7733 19.1732 3.4001 18.4 3.4001H1.59995C0.826752 3.4001 0.199951 2.7733 0.199951 2.0001Z" fill="currentColor" />
			<path fill-rule="evenodd" clip-rule="evenodd" d="M0.199951 9.0001C0.199951 8.2269 0.826752 7.6001 1.59995 7.6001H18.4C19.1732 7.6001 19.8 8.2269 19.8 9.0001C19.8 9.7733 19.1732 10.4001 18.4 10.4001H1.59995C0.826752 10.4001 0.199951 9.7733 0.199951 9.0001Z" fill="currentColor" />
			<path fill-rule="evenodd" clip-rule="evenodd" d="M0.199951 16.0001C0.199951 15.2269 0.826752 14.6001 1.59995 14.6001H18.4C19.1732 14.6001 19.8 15.2269 19.8 16.0001C19.8 16.7733 19.1732 17.4001 18.4 17.4001H1.59995C0.826752 17.4001 0.199951 16.7733 0.199951 16.0001Z" fill="currentColor" />
		</symbol>
		<symbol id="arrow-right" width="100%" height="100%" viewBox="0 0 15 10">
			<path d="M13 5L13.7071 4.29289L14.4142 5L13.7071 5.70711L13 5ZM1 6C0.447715 6 0 5.55228 0 5C0 4.44772 0.447715 4 1 4V6ZM9.70711 0.292893L13.7071 4.29289L12.2929 5.70711L8.29289 1.70711L9.70711 0.292893ZM13.7071 5.70711L9.70711 9.70711L8.29289 8.29289L12.2929 4.29289L13.7071 5.70711ZM13 6H1V4H13V6Z" fill="currentColor" />
		</symbol>
		<symbol id="arrow-left" width="100%" height="100%" viewBox="0 0 15 10">
			<path d="M2 5L1.29289 4.29289L0.585786 5L1.29289 5.70711L2 5ZM14 6C14.5523 6 15 5.55228 15 5C15 4.44772 14.5523 4 14 4V6ZM5.29289 0.292893L1.29289 4.29289L2.70711 5.70711L6.70711 1.70711L5.29289 0.292893ZM1.29289 5.70711L5.29289 9.70711L6.70711 8.29289L2.70711 4.29289L1.29289 5.70711ZM2 6H14V4H2V6Z" fill="currentColor" />
		</symbol>
		<symbol id="gal-ochka" width="100%" height="100%" viewBox="0 0 12 10">
			<path d="M6.23497 8.79946C5.9649 9.16602 5.54433 9.3913 5.0896 9.41369C4.63487 9.43632 4.19445 9.25304 3.88975 8.91464L1.15929 5.88456C0.725328 5.40328 0.763876 4.6614 1.24515 4.22744C1.72689 3.79348 2.46831 3.83226 2.90227 4.31377L4.83407 6.45771C4.8627 6.48956 4.90425 6.50664 4.94695 6.50456C4.98988 6.50249 5.02912 6.48102 5.05475 6.44686L9.02546 1.0614C9.40979 0.539728 10.1443 0.428699 10.6662 0.813259C11.1876 1.19782 11.2984 1.93232 10.9139 2.45376L6.23497 8.79946Z" fill="currentColor" />
		</symbol>
		<symbol id="to-right" width="100%" height="100%" viewBox="0 0 8 14">
			<path d="M5.63663 7.00019L1.15148 2.51504C0.7935 2.15706 0.7935 1.57666 1.15148 1.21868C1.50946 0.8607 2.08986 0.8607 2.44784 1.21868L7.58118 6.35201C7.93916 6.70999 7.93916 7.29039 7.58118 7.64838L2.44784 12.7817C2.08986 13.1397 1.50946 13.1397 1.15148 12.7817C0.7935 12.4237 0.7935 11.8433 1.15148 11.4853L5.63663 7.00019Z" fill="currentColor" />
		</symbol>
		<symbol id="to-left" width="100%" height="100%" viewBox="0 0 8 14">
			<path d="M2.36337 7.00019L6.84852 2.51504C7.2065 2.15706 7.2065 1.57666 6.84852 1.21868C6.49054 0.8607 5.91014 0.8607 5.55216 1.21868L0.418823 6.35201C0.0608425 6.70999 0.0608425 7.29039 0.418823 7.64838L5.55216 12.7817C5.91014 13.1397 6.49054 13.1397 6.84852 12.7817C7.2065 12.4237 7.2065 11.8433 6.84852 11.4853L2.36337 7.00019Z" fill="currentColor" />
		</symbol>
		<symbol id="play" width="100%" height="100%" viewBox="0 0 32 38">
			<path d="M5.27275 38C4.93519 38 4.61146 37.8332 4.37278 37.5363C4.13409 37.2393 4 36.8366 4 36.4167V1.58307C4.00004 1.30794 4.05771 1.03756 4.16732 0.79859C4.27694 0.559623 4.43472 0.360315 4.62511 0.220312C4.81551 0.0803081 5.03194 0.00444103 5.25308 0.000189119C5.47422 -0.00406279 5.69243 0.0634472 5.88621 0.196064L31.3411 17.6129C31.5407 17.7495 31.7071 17.9503 31.823 18.1943C31.9389 18.4383 32 18.7165 32 18.9999C32 19.2833 31.9389 19.5615 31.823 19.8054C31.7071 20.0494 31.5407 20.2502 31.3411 20.3869L5.88621 37.8037C5.69829 37.9324 5.48727 37.9999 5.27275 38Z" fill="currentColor" />
		</symbol>
		<symbol id="cross" width="100%" height="100%" viewBox="0 0 16 16">
			<path d="M1 15L15 1M1 1L15 15" fill="none" stroke="currentColor" stroke-width="2" stroke-linecap="round" stroke-linejoin="round" />
		</symbol>
		<!--  -->
		<!--  -->
		<!--  -->
	</defs>
</svg>
