<svg width="104" height="107" viewBox="0 0 104 107" fill="none" xmlns="http://www.w3.org/2000/svg">
<path d="M51.2935 51.543C51.5504 58.2803 43.0082 67.1351 36.2644 67.0709C35.8148 67.0709 35.4294 66.6859 35.4294 66.2368C35.1725 59.5636 43.779 50.6447 50.4586 50.7088C50.9082 50.7088 51.2935 51.0938 51.2935 51.543Z" fill="white"/>
<path d="M48.9814 45.1265C44.6782 45.5114 38.7693 40.2499 38.5767 35.9509C38.5767 35.6942 38.7693 35.4375 39.0905 35.3734C43.3295 34.9884 49.3026 40.2499 49.4953 44.549C49.4953 44.8698 49.3026 45.1265 48.9814 45.1265Z" fill="white"/>
<path d="M54.4408 45.7681C53.6701 39.8008 60.735 31.2668 66.7081 30.8176C67.0935 30.8176 67.4789 31.0743 67.5431 31.4593C68.3138 37.4266 61.2488 45.9606 55.2757 46.4098C54.8261 46.4098 54.505 46.1531 54.4408 45.7681Z" fill="white"/>
<path d="M50.908 35.1167C46.2195 31.7801 44.678 21.3212 48.2747 16.8297C48.5317 16.5088 48.917 16.4447 49.2382 16.7013C53.9267 19.9737 55.4039 30.4968 51.8715 34.9884C51.6788 35.3092 51.2292 35.3734 50.908 35.1167Z" fill="white"/>
<path d="M40.6318 48.6555C35.6221 53.1471 23.2905 52.1205 19.0515 46.9231C18.7946 46.6023 18.7946 46.0889 19.1158 45.7681C24.1255 41.3407 36.4571 42.3032 40.696 47.5006C41.0172 47.8214 40.953 48.3347 40.6318 48.6555Z" fill="white"/>
<path d="M56.6245 51.6713C62.2764 48.0139 74.2869 50.773 77.6909 56.612C77.9478 56.997 77.8194 57.5103 77.434 57.767C71.8463 61.4244 59.7716 58.6011 56.3675 52.8263C56.1106 52.4413 56.2391 51.928 56.6245 51.6713Z" fill="white"/>
<path d="M54.7617 58.922C58.4869 60.0769 61.634 66.4934 60.2852 70.1509C60.221 70.4075 59.8999 70.5358 59.7072 70.4717C56.0462 69.3167 52.8349 62.9002 54.1837 59.2428C54.2479 58.9861 54.5048 58.8578 54.7617 58.922Z" fill="white"/>
<path d="M68.635 43.5865C71.8463 39.0949 81.8658 37.7475 86.169 41.2124C86.4901 41.469 86.4901 41.854 86.2974 42.1749C83.0861 46.6023 73.0024 48.0139 68.7634 44.549C68.5065 44.2923 68.4423 43.8432 68.635 43.5865Z" fill="white"/>
<path d="M60.6706 26.0053C57.395 19.9737 61.3128 8.03903 67.4786 5.08743C67.864 4.89494 68.3778 5.02327 68.6347 5.47242C71.8461 11.4398 67.9924 23.4387 61.8266 26.3902C61.3771 26.5827 60.8632 26.4544 60.6706 26.0053Z" fill="white"/>
<path d="M73.0023 32.9993C73.9015 26.2619 83.9209 18.9471 90.6005 20.1662C91.0501 20.2304 91.3713 20.6796 91.307 21.1287C90.4079 27.8019 80.3242 35.1809 73.7088 33.9617C73.2592 33.8334 72.9381 33.4484 73.0023 32.9993Z" fill="white"/>
<path d="M33.246 36.5925C29.0712 37.6833 22.3274 33.5126 21.4924 29.2777C21.4282 29.021 21.6209 28.7002 21.8778 28.636C26.0525 27.5452 32.7964 31.7801 33.6313 35.9509C33.6956 36.2075 33.5029 36.5283 33.246 36.5925Z" fill="white"/>
<path d="M40.2463 30.8176C34.9797 30.4326 28.8781 22.9253 29.5204 17.6638C29.5846 17.343 29.9057 17.0863 30.2269 17.0863C35.4935 17.4713 41.595 25.0428 40.9528 30.2401C40.9528 30.561 40.6316 30.8176 40.2463 30.8176Z" fill="white"/>
<path d="M41.4671 85.5505C38.7695 80.3531 42.2378 70.1508 47.5686 67.7126C47.954 67.5201 48.3393 67.7126 48.532 68.0334C51.2296 73.2308 47.6971 83.433 42.4305 85.8713C42.1093 85.9996 41.6597 85.8713 41.4671 85.5505Z" fill="white"/>
<path d="M54.3765 14.8405C50.5871 12.3381 49.1099 4.18913 51.7432 0.467549C51.9359 0.210889 52.257 0.146726 52.5139 0.339221C56.3033 2.84166 57.7805 11.0548 55.1472 14.7122C55.0188 14.9689 54.6334 15.033 54.3765 14.8405Z" fill="white"/>
<path d="M21.8774 56.4837C18.2806 61.2961 7.29782 62.6435 2.60924 58.7936C2.28811 58.537 2.22388 58.0878 2.48079 57.767C6.0775 52.9546 17.1246 51.6713 21.7489 55.457C22.07 55.7137 22.1343 56.1629 21.8774 56.4837Z" fill="white"/>
<path d="M21.749 39.2233C17.1889 42.8165 6.71991 41.2766 3.3801 36.5925C3.18742 36.2717 3.25165 35.8225 3.50855 35.63C8.00445 32.1009 18.6019 33.5767 21.8775 38.2608C22.1344 38.5816 22.0702 39.0308 21.749 39.2233Z" fill="white"/>
<path d="M12.0508 47.3722C9.41752 49.9388 2.60946 49.618 0.233059 46.8589C0.104605 46.6664 0.104605 46.4098 0.233059 46.2173C2.86637 43.6507 9.67443 43.9715 12.0508 46.7306C12.2435 46.9231 12.2435 47.1797 12.0508 47.3722Z" fill="white"/>
<path d="M31.4475 57.1253C32.2182 62.3869 26.1167 70.0867 20.7858 70.5358C20.4004 70.6 20.0793 70.3433 20.0793 69.9584C19.3086 64.6968 25.4744 56.997 30.741 56.5479C31.1264 56.4837 31.3833 56.7403 31.4475 57.1253Z" fill="white"/>
<path d="M41.6597 17.0863C37.9345 14.1347 37.1638 5.5366 40.2467 1.94335C40.4394 1.68669 40.8247 1.68669 41.0817 1.87919C44.7426 4.76662 45.5775 13.4931 42.4946 17.0222C42.2377 17.2146 41.8524 17.2788 41.6597 17.0863Z" fill="white"/>
<path d="M66.6437 63.9268C72.3599 63.1569 80.5809 69.83 81.0305 75.5407C81.0305 75.9257 80.7736 76.2465 80.3883 76.3107C74.7363 77.0165 66.451 70.3433 66.0014 64.6968C65.9372 64.3118 66.2583 63.991 66.6437 63.9268Z" fill="white"/>
<path d="M81.0306 51.928C86.2973 47.7572 98.5004 49.4255 102.482 54.8796C102.739 55.2645 102.675 55.7779 102.354 56.0345C97.1516 60.2053 84.82 58.4728 80.9022 53.0829C80.6453 52.6979 80.7095 52.2488 81.0306 51.928Z" fill="white"/>
<path d="M17.7026 29.0852C13.6563 31.0101 6.01327 27.9944 4.34336 23.8878C4.21491 23.6311 4.34336 23.3103 4.60027 23.182C8.58235 21.3212 16.2896 24.2728 17.9595 28.3794C18.0879 28.636 17.9595 28.9569 17.7026 29.0852Z" fill="white"/>
<path d="M24.3826 23.8236C19.3729 23.182 13.9136 15.6105 14.8128 10.6698C14.877 10.349 15.1981 10.0923 15.5193 10.1565C20.529 10.8623 25.9883 18.3696 25.0249 23.3103C25.0249 23.6311 24.7037 23.8878 24.3826 23.8236Z" fill="white"/>
<path d="M32.2822 12.2739C28.6854 12.0173 24.3822 6.94822 24.8318 3.35498C24.8318 3.09832 25.0887 2.96999 25.3456 2.96999C28.9423 3.22665 33.2456 8.35986 32.796 11.8889C32.7317 12.1456 32.5391 12.2739 32.2822 12.2739Z" fill="white"/>
<path d="M31.7684 85.8071C27.3367 83.6255 26.5017 74.8991 30.2911 70.6C30.548 70.3433 30.9976 70.215 31.2545 70.3433C35.6862 72.525 36.5212 81.2514 32.7318 85.5505C32.4749 85.8713 32.0895 85.9355 31.7684 85.8071Z" fill="white"/>
<path d="M87.5818 35.1809C90.1509 31.0743 98.8858 29.3418 102.868 32.1009C103.125 32.2934 103.189 32.6784 103.061 32.9351C100.491 36.9775 91.7566 38.7741 87.7745 36.015C87.5176 35.8225 87.4534 35.4375 87.5818 35.1809Z" fill="white"/>
<path d="M21.492 76.2465C20.5929 80.7381 13.4636 85.2938 8.96776 84.1388C8.64662 84.0747 8.45394 83.7538 8.51817 83.4972C9.41734 79.0056 16.6108 74.4499 21.0424 75.6049C21.3636 75.669 21.492 75.9257 21.492 76.2465Z" fill="white"/>
<path d="M15.455 68.2901C12.9501 71.8191 5.17865 73.0383 1.71039 70.4075C1.45348 70.215 1.45348 69.8942 1.58193 69.7017C4.02256 66.1726 11.9225 64.9535 15.2623 67.5842C15.5192 67.7126 15.5834 68.0334 15.455 68.2901Z" fill="white"/>
<path d="M72.617 20.8079C72.1674 16.1238 77.8194 9.70733 82.508 9.45067C82.8291 9.45067 83.086 9.64317 83.086 9.96399C83.5356 14.5839 77.8194 21.1287 73.195 21.3212C72.9381 21.3212 72.6812 21.0646 72.617 20.8079Z" fill="white"/>
<path d="M37.7416 88.2454C39.4115 91.7745 36.7782 98.3835 33.1815 99.8593C32.9246 99.9876 32.6677 99.8593 32.5392 99.6026C30.9335 96.0735 33.5026 89.4004 37.0993 87.9887C37.3562 87.9246 37.6774 88.0529 37.7416 88.2454Z" fill="white"/>
<path d="M55.9177 73.2308C60.4778 76.054 62.4689 85.6146 59.386 89.9779C59.1933 90.2987 58.8079 90.3629 58.4868 90.1704C53.9909 87.4113 51.9999 77.7865 55.0185 73.4233C55.2112 73.1666 55.5966 73.0383 55.9177 73.2308Z" fill="white"/>
<path d="M48.596 88.3737C51.1009 92.352 48.9171 100.758 44.8066 103.068C44.5497 103.196 44.1643 103.132 44.0359 102.875C41.531 98.8968 43.7147 90.4912 47.8253 88.1812C48.0822 87.9887 48.4033 88.1171 48.596 88.3737Z" fill="white"/>
<path d="M66.5156 76.1182C73.0025 77.5298 79.2967 87.8604 77.5626 94.2128C77.4342 94.6619 77.0488 94.9186 76.5992 94.7903C70.1765 93.3786 63.818 83.048 65.5522 76.6957C65.6806 76.2465 66.1302 75.9899 66.5156 76.1182Z" fill="white"/>
<path d="M64.5245 92.9936C67.6716 94.0203 70.2407 99.5385 69.0846 102.683C69.0204 102.875 68.7635 103.003 68.5708 102.939C65.4237 101.913 62.8546 96.3302 64.0107 93.2503C64.0749 93.0578 64.3318 92.9295 64.5245 92.9936Z" fill="white"/>
<path d="M23.9329 83.8822C26.502 86.4488 26.3093 92.6728 23.6118 94.7261C23.4191 94.8544 23.1622 94.8544 22.9695 94.6619C20.4004 92.0953 20.5931 85.8713 23.2906 83.818C23.4833 83.6897 23.8045 83.7539 23.9329 83.8822Z" fill="white"/>
<path d="M92.5273 43.3298C95.0322 40.8916 101.519 41.1482 103.831 43.779C103.96 43.9715 103.96 44.2281 103.831 44.3565C101.326 46.7947 94.8395 46.5381 92.5273 43.9073C92.3346 43.779 92.3346 43.5223 92.5273 43.3298Z" fill="white"/>
<path d="M55.4039 93.7636C58.7437 95.7527 60.3494 102.683 58.2299 105.891C58.1015 106.083 57.7803 106.147 57.5876 106.019C54.2478 104.094 52.6422 97.1002 54.7617 93.8919C54.8901 93.6994 55.2112 93.6353 55.4039 93.7636Z" fill="white"/>
<path d="M79.8748 63.0285C85.0129 59.8844 95.7389 62.7719 98.5648 68.0334C98.7575 68.3542 98.6291 68.8034 98.3079 69.06C93.1698 72.2041 82.4439 69.3167 79.6179 64.0552C79.4252 63.7343 79.5537 63.2852 79.8748 63.0285Z" fill="white"/>
<path d="M80.7739 80.8664C84.6917 81.0589 89.3161 86.4488 88.9307 90.3629C88.9307 90.6195 88.6738 90.812 88.4169 90.812C84.5633 90.6195 79.8747 85.1655 80.2601 81.3156C80.3243 80.9948 80.517 80.8023 80.7739 80.8664Z" fill="white"/>
<path d="M86.0403 75.2841C89.1232 73.5516 95.4174 75.4766 97.0231 78.6206C97.1516 78.8131 97.0231 79.0698 96.8304 79.1981C93.7475 80.9306 87.4533 79.0056 85.8476 75.8616C85.7192 75.6691 85.8476 75.4124 86.0403 75.2841Z" fill="white"/>
</svg>
