<svg width="25" height="39" viewBox="0 0 25 39" fill="none" xmlns="http://www.w3.org/2000/svg">
<path fill-rule="evenodd" clip-rule="evenodd" d="M14.5252 -0.690918L14.5252 20.2959C14.5252 20.3959 14.5252 20.5957 14.5252 20.6957L22.0631 16.0986C22.9442 15.4989 24.2168 15.7988 24.7063 16.7981C25.0979 17.3978 25.0979 18.1973 24.7063 18.7969L14.1336 37.685C13.6442 38.6844 12.3715 38.9842 11.4905 38.4845C11.1968 38.2847 10.9031 37.9849 10.7073 37.685L0.23252 18.7969C-0.256955 17.7975 0.0367291 16.5983 1.01568 16.0986C1.70095 15.6988 2.48411 15.7988 3.07148 16.1985L10.5115 20.7956C10.5115 20.6957 10.5115 20.4958 10.5115 20.3959L10.5115 -0.690919L14.5252 -0.690918Z" fill="white"/>
</svg>
