<svg width="487" height="333" viewBox="0 0 487 333" fill="none" xmlns="http://www.w3.org/2000/svg">
<g opacity="0.3">
<path d="M269.565 276.325C291.448 262.754 336.826 274.117 349.233 296.414C350.074 297.893 349.517 299.887 348.026 300.736C326.356 314.186 280.645 302.732 268.359 280.646C267.518 279.168 268.074 277.173 269.565 276.325Z" fill="#BAD099"/>
<path d="M252.593 296.049C261.924 309.472 255.516 338.841 241.606 347.596C240.754 348.08 239.542 347.932 238.728 346.997C229.518 333.785 235.805 304.204 249.715 295.45C250.78 294.844 251.992 294.993 252.593 296.049Z" fill="#BAD099"/>
<path d="M244.507 276.884C226.141 290.691 184.593 283.579 171.925 264.786C171.204 263.519 171.334 261.767 172.492 260.828C190.858 247.022 232.406 254.133 245.075 272.927C245.916 274.405 245.665 275.946 244.507 276.884Z" fill="#BAD099"/>
<path d="M215.761 308.621C213.46 330.341 181.627 355.166 159.987 351.823C158.442 351.585 157.508 350.439 157.759 348.898C159.847 327.299 192.013 302.563 213.533 305.695C214.958 305.723 216.012 307.08 215.761 308.621Z" fill="#BAD099"/>
<path d="M279.932 316.839C304.216 324.828 323.884 367.318 314.565 391.075C313.981 392.525 312.277 393.495 310.611 393.045C286.54 384.935 266.659 342.566 275.978 318.809C276.442 317.147 278.266 316.389 279.932 316.839Z" fill="#BAD099"/>
<path d="M260.016 258.553C237.299 246.876 223.982 202.169 236.994 179.946C237.791 178.374 239.735 177.827 241.308 178.609C263.905 190.075 277.129 235.114 264.33 257.216C263.533 258.788 261.589 259.335 260.016 258.553Z" fill="#BAD099"/>
<path d="M287.569 250.981C284.432 236.55 299.841 214.081 314.506 211.607C315.478 211.334 316.505 212.147 316.652 212.902C319.669 227.122 304.38 249.803 289.715 252.276C288.743 252.55 287.837 251.947 287.569 250.981Z" fill="#BAD099"/>
<path d="M210.704 234.33C189.785 232.255 166.563 201.853 170.012 181.157C170.263 179.616 171.541 178.889 172.966 178.916C193.672 181.113 217.227 211.605 213.658 232.09C213.287 233.419 211.916 234.479 210.704 234.33Z" fill="#BAD099"/>
<path d="M167.248 293.729C153.357 315.894 106.41 325.555 85.0742 310.855C83.7141 309.951 83.1785 308.019 84.1887 306.326C97.9872 284.494 145.027 274.5 166.363 289.2C167.843 290.315 168.379 292.247 167.248 293.729Z" fill="#BAD099"/>
<path d="M167.388 239.967C143.341 249.737 100.311 230.607 91.8586 206.339C91.2302 204.74 92.1202 202.835 93.7313 202.198C117.565 192.55 160.928 211.769 169.261 235.826C169.676 237.547 168.999 239.33 167.388 239.967Z" fill="#BAD099"/>
<path d="M400.838 244.4C388.634 263.088 348.279 270.955 330.209 258.031C328.849 257.127 328.767 255.496 329.471 254.257C341.676 235.569 382.151 227.913 400.1 240.626C401.127 241.439 401.542 243.16 400.838 244.4Z" fill="#BAD099"/>
<path d="M141.967 335.517C140.751 352.705 116.466 372.955 99.1852 371.326C97.9727 371.177 97.1588 370.243 97.317 369.034C98.5324 351.846 123.031 331.474 140.099 333.225C141.191 333.162 142.125 334.308 141.967 335.517Z" fill="#BAD099"/>
<path d="M325.233 331.041C341.256 318.568 378.233 324.087 389.699 340.769C390.633 341.915 390.382 343.455 389.105 344.183C373.082 356.656 335.985 350.925 324.639 334.455C323.705 333.309 324.076 331.98 325.233 331.041Z" fill="#BAD099"/>
<path d="M281.947 202.455C268.694 185.113 275.461 145.474 293.576 133.208C294.854 132.481 296.399 132.72 297.333 133.866C310.253 151.118 303.606 190.968 285.705 203.113C284.547 204.051 282.881 203.601 281.947 202.455Z" fill="#BAD099"/>
<path d="M215.196 177.812C191.496 168.372 174.198 125.092 184.85 101.695C185.648 100.123 187.472 99.3648 188.925 99.936C212.504 109.165 229.83 152.988 219.27 176.053C218.473 177.625 216.862 178.262 215.196 177.812Z" fill="#BAD099"/>
<path d="M419.838 275.806C420.89 294.5 393.486 313.729 372.124 309.389C370.792 309.029 369.524 307.793 369.47 306.706C368.418 288.012 395.822 268.783 417.184 273.123C418.729 273.362 419.663 274.508 419.838 275.806Z" fill="#BAD099"/>
<path d="M147.347 187.904C128.908 187.213 106.812 161.762 108.518 143.456C108.677 142.248 109.834 141.309 110.927 141.247C129.153 142.059 151.462 167.388 149.755 185.695C149.597 186.903 148.439 187.842 147.347 187.904Z" fill="#BAD099"/>
<path d="M407.333 327.658C423.925 322.13 452.388 336.968 456.968 353.934C457.355 355.111 456.651 356.35 455.679 356.624C439.087 362.152 410.504 347.103 406.045 330.348C405.657 329.171 406.268 328.264 407.333 327.658Z" fill="#BAD099"/>
<path d="M127.641 264.263C112.934 274.59 81.059 268.125 71.4333 253.192C70.8324 252.136 70.9906 250.928 72.0555 250.322C86.5494 240.116 118.971 246.55 128.264 261.393C128.744 262.238 128.373 263.567 127.641 264.263Z" fill="#BAD099"/>
<path d="M416.754 251.559C425.344 239.401 452.209 235.576 463.839 244.616C464.745 245.218 464.8 246.305 464.189 247.213C455.479 259.159 428.521 263.316 417.104 254.156C416.411 253.432 416.236 252.134 416.754 251.559Z" fill="#BAD099"/>
<path d="M332.902 220.151C333.74 199.823 361.749 175.216 382.002 177.112C383.427 177.139 384.361 178.285 384.323 179.705C383.578 199.701 355.355 224.429 335.223 222.744C334.011 222.596 332.864 221.571 332.902 220.151Z" fill="#BAD099"/>
<path d="M396.869 215.623C405.387 199.872 437.374 191.175 452.734 200.328C453.641 200.931 454.149 202.319 453.537 203.226C445.019 218.978 413.032 227.675 397.672 218.521C396.552 218.04 396.377 216.742 396.869 215.623Z" fill="#BAD099"/>
<path d="M322.655 179.849C315.202 155.851 337.715 115.639 362.045 109.342C363.777 108.916 365.35 109.698 365.765 111.419C373.098 135.206 350.706 175.629 326.375 181.926C324.644 182.352 322.95 181.358 322.655 179.849Z" fill="#BAD099"/>
<path d="M382.397 154.518C379.916 142.23 393.425 123.359 406.025 121.221C406.784 121.069 407.691 121.671 407.838 122.426C410.32 134.714 396.597 153.707 384.21 155.723C383.451 155.876 382.545 155.273 382.397 154.518Z" fill="#BAD099"/>
<path d="M428.112 305.209C431.824 291.912 452.844 280.789 464.708 285.781C465.494 286.172 465.975 287.017 465.697 288.014C461.985 301.31 440.964 312.434 429.101 307.442C428.314 307.051 427.926 305.873 428.112 305.209Z" fill="#BAD099"/>
<path d="M165.142 156.248C152.361 152.617 141.074 130.801 145.48 118.228C145.878 117.442 146.73 116.957 147.396 117.137C160.177 120.768 171.464 142.585 167.059 155.157C166.993 156.033 166.141 156.518 165.142 156.248Z" fill="#BAD099"/>
<path d="M402.02 183.055C402.373 168.315 422.371 149.945 436.986 150.854C437.866 150.913 438.679 151.847 438.614 152.723C438.474 167.342 418.263 185.834 403.648 184.924C402.768 184.865 401.954 183.931 402.02 183.055Z" fill="#BAD099"/>
<path d="M254.206 160.644C234.155 149.687 223.668 108.963 235.845 89.731C236.549 88.4913 238.28 88.0653 239.733 88.6365C259.785 99.5935 270.272 140.318 258.095 159.55C257.39 160.79 255.659 161.216 254.206 160.644Z" fill="#BAD099"/>
<path d="M311.734 123.993C305.042 110.746 314.279 85.3581 327.993 79.2317C328.845 78.7469 329.964 79.2281 330.445 80.0729C337.017 93.1086 327.687 118.829 314.187 124.834C313.002 125.229 312.002 124.959 311.734 123.993Z" fill="#BAD099"/>
<path d="M283.349 117.219C271.829 110.354 266.44 86.0203 273.872 74.8012C274.271 74.0152 275.363 73.9528 276.15 74.344C287.669 81.2091 293.058 105.543 285.627 116.762C285.228 117.548 284.136 117.61 283.349 117.219Z" fill="#BAD099"/>
</g>
</svg>
