<?xml version="1.0"?>
<svg xmlns="http://www.w3.org/2000/svg" xmlns:xlink="http://www.w3.org/1999/xlink" version="1.1" xml:space="preserve">
	<defs>
		<symbol id="arrow-left" width="100%" height="100%" viewBox="0 0 17 11">
			<path fill-rule="evenodd" clip-rule="evenodd" d="M5.70711 9.70711C5.31658 10.0976 4.68342 10.0976 4.29289 9.70711L0.292894 5.70711C-0.0976312 5.31658 -0.0976312 4.68342 0.292894 4.29289L4.29289 0.292894C4.68342 -0.0976312 5.31658 -0.0976312 5.70711 0.292894C6.09763 0.683417 6.09763 1.31658 5.70711 1.70711L3.41421 4L15 4C15.5523 4 16 4.44771 16 5C16 5.55228 15.5523 6 15 6L3.41421 6L5.70711 8.29289C6.09763 8.68342 6.09763 9.31658 5.70711 9.70711Z" fill="currentColor" />
		</symbol>
		<symbol id="badge-contur" width="100%" height="100%" viewBox="0 0 18 17">
			<path d="M7.22222 3.66667H2.77778C1.79594 3.66667 1 4.46261 1 5.44444V13.4444C1 14.4263 1.79594 15.2222 2.77778 15.2222H15.2222C16.2041 15.2222 17 14.4263 17 13.4444V5.44444C17 4.46261 16.2041 3.66667 15.2222 3.66667H10.7778M7.22222 3.66667V2.77778C7.22222 1.79594 8.01816 1 9 1C9.98184 1 10.7778 1.79594 10.7778 2.77778V3.66667M7.22222 3.66667C7.22222 4.64851 8.01816 5.44444 9 5.44444C9.98184 5.44444 10.7778 4.64851 10.7778 3.66667M6.33333 10.7778C7.31517 10.7778 8.11111 9.98184 8.11111 9C8.11111 8.01816 7.31517 7.22222 6.33333 7.22222C5.35149 7.22222 4.55556 8.01816 4.55556 9C4.55556 9.98184 5.35149 10.7778 6.33333 10.7778ZM6.33333 10.7778C7.49442 10.7778 8.48214 11.5198 8.84822 12.5556M6.33333 10.7778C5.17225 10.7778 4.18444 11.5198 3.81836 12.5556M11.6667 8.11111H14.3333M11.6667 11.6667H13.4444" stroke="currentColor" fill="none" stroke-width="1.6" stroke-linecap="round" stroke-linejoin="round" />
		</symbol>
		<symbol id="bag" width="100%" height="100%" viewBox="0 0 14 14">
			<path fill-rule="evenodd" clip-rule="evenodd" d="M3.5 3.5V2.625C3.5 1.17525 4.67525 0 6.125 0H7.875C9.32475 0 10.5 1.17525 10.5 2.625V3.5H12.25C13.2165 3.5 14 4.2835 14 5.25V8.37442C11.8209 9.18289 9.46303 9.62495 7.00002 9.62495C4.537 9.62495 2.17907 9.18288 0 8.3744V5.25C0 4.2835 0.783502 3.5 1.75 3.5H3.5ZM5.25 2.625C5.25 2.14175 5.64175 1.75 6.125 1.75H7.875C8.35825 1.75 8.75 2.14175 8.75 2.625V3.5H5.25V2.625ZM6.125 7C6.125 6.51675 6.51675 6.125 7 6.125H7.00875C7.492 6.125 7.88375 6.51675 7.88375 7C7.88375 7.48325 7.492 7.875 7.00875 7.875H7C6.51675 7.875 6.125 7.48325 6.125 7Z" fill="currentColor" />
			<path d="M0 10.2307V12.25C0 13.2165 0.783502 14 1.75 14H12.25C13.2165 14 14 13.2165 14 12.25V10.2307C11.8013 10.9729 9.44685 11.375 7.00002 11.375C4.55317 11.375 2.19869 10.9729 0 10.2307Z" fill="currentColor" />
		</symbol>
		<symbol id="balcony-glazing" width="100%" height="100%" viewBox="0 0 15 16">
			<path d="M14.0625 1.40625V0.46875C14.0625 0.209717 13.8528 0 13.5938 0H0.46875C0.209717 0 0 0.209717 0 0.46875V1.40625C0 1.66528 0.209717 1.875 0.46875 1.875H13.5938C13.8528 1.875 14.0625 1.66528 14.0625 1.40625Z" fill="currentColor" />
			<path d="M3.75 2.8125H6.5625V5.65625H3.75V2.8125Z" fill="currentColor" />
			<path d="M7.5 6.59375H10.3125V9.40625H7.5V6.59375Z" fill="currentColor" />
			<path d="M3.75 6.59375H6.5625V9.40625H3.75V6.59375Z" fill="currentColor" />
			<path d="M3.75 10.3438H6.5625V13.1875H3.75V10.3438Z" fill="currentColor" />
			<path d="M0.9375 2.8125H2.8125V13.1875H0.9375V2.8125Z" fill="currentColor" />
			<path d="M11.25 2.8125H13.125V13.1875H11.25V2.8125Z" fill="currentColor" />
			<path d="M7.5 2.8125H10.3125V5.65625H7.5V2.8125Z" fill="currentColor" />
			<path d="M7.5 10.3438H10.3125V13.1875H7.5V10.3438Z" fill="currentColor" />
			<path d="M0 15.5312C0 15.7903 0.209717 16 0.46875 16H13.5938C13.8528 16 14.0625 15.7903 14.0625 15.5312V14.5938C14.0625 14.3347 13.8528 14.125 13.5938 14.125H0.46875C0.209717 14.125 0 14.3347 0 14.5938V15.5312Z" fill="currentColor" />
		</symbol>
		<symbol id="book-contur" width="100%" height="100%" viewBox="0 0 18 15">
			<path d="M9 2.14266V14M9 2.14266C7.96187 1.43495 6.55244 1 5 1C3.44756 1 2.03813 1.43495 1 2.14266V14C2.03813 13.2923 3.44756 12.8573 5 12.8573C6.55244 12.8573 7.96187 13.2923 9 14M9 2.14266C10.0381 1.43495 11.4476 1 13 1C14.5524 1 15.9619 1.43495 17 2.14266V14C15.9619 13.2923 14.5524 12.8573 13 12.8573C11.4476 12.8573 10.0381 13.2923 9 14" fill="none" stroke="currentColor" stroke-width="1.6" stroke-linecap="round" stroke-linejoin="round"/>
		</symbol>
		<symbol id="calendar" width="100%" height="100%" viewBox="0 0 16 16">
			<path fill-rule="evenodd" clip-rule="evenodd" d="M4 0C3.44772 0 3 0.447715 3 1V2H2C0.895431 2 0 2.89543 0 4V14C0 15.1046 0.895431 16 2 16H14C15.1046 16 16 15.1046 16 14V4C16 2.89543 15.1046 2 14 2H13V1C13 0.447715 12.5523 0 12 0C11.4477 0 11 0.447715 11 1V2H5V1C5 0.447715 4.55228 0 4 0ZM4 5C3.44772 5 3 5.44772 3 6C3 6.55228 3.44772 7 4 7H12C12.5523 7 13 6.55228 13 6C13 5.44772 12.5523 5 12 5H4Z" fill="currentColor" />
		</symbol>
		<symbol id="chart" width="100%" height="100%" viewBox="0 0 18 16">
			<path d="M4.09091 8.72727H0.818182C0.327273 8.72727 0 9.01818 0 9.45455V15.2727C0 15.7091 0.327273 16 0.818182 16H4.09091C4.58182 16 4.90909 15.7091 4.90909 15.2727V9.45455C4.90909 9.01818 4.58182 8.72727 4.09091 8.72727ZM17.1818 5.81818H13.9091C13.4182 5.81818 13.0909 6.10909 13.0909 6.54545V15.2727C13.0909 15.7091 13.4182 16 13.9091 16H17.1818C17.6727 16 18 15.7091 18 15.2727V6.54545C18 6.10909 17.6727 5.81818 17.1818 5.81818ZM10.6364 0H7.36364C6.87273 0 6.54545 0.290909 6.54545 0.727273V15.2727C6.54545 15.7091 6.87273 16 7.36364 16H10.6364C11.1273 16 11.4545 15.7091 11.4545 15.2727V0.727273C11.4545 0.290909 11.1273 0 10.6364 0Z" fill="currentColor" />
		</symbol>
		<symbol id="chart-contur" width="100%" height="100%" viewBox="0 0 18 16">
			<path d="M0.818182 9.52727H4.09091C4.09742 9.52727 4.10347 9.52741 4.10909 9.52764V15.1996C4.10347 15.1999 4.09742 15.2 4.09091 15.2H0.818182C0.81167 15.2 0.805617 15.1999 0.8 15.1996V9.52764C0.805617 9.52741 0.81167 9.52727 0.818182 9.52727ZM4.17041 9.53796C4.17038 9.53798 4.16984 9.53776 4.16883 9.53721L4.17041 9.53796ZM4.17041 15.1893C4.17043 15.1893 4.16992 15.1896 4.16883 15.1901L4.17041 15.1893ZM0.738685 15.1893C0.738702 15.1893 0.739245 15.1895 0.74026 15.1901L0.738685 15.1893ZM0.738685 9.53796C0.738667 9.53793 0.739175 9.53766 0.74026 9.53721L0.738685 9.53796ZM13.9091 6.61818H17.1818C17.1883 6.61818 17.1944 6.61832 17.2 6.61855V15.1996C17.1944 15.1999 17.1883 15.2 17.1818 15.2H13.9091C13.9026 15.2 13.8965 15.1999 13.8909 15.1996V6.61855C13.8965 6.61832 13.9026 6.61818 13.9091 6.61818ZM17.2613 6.62887C17.2613 6.62889 17.2608 6.62867 17.2597 6.62812L17.2613 6.62887ZM17.2613 15.1893C17.2613 15.1893 17.2608 15.1896 17.2598 15.19L17.2613 15.1893ZM13.8296 15.1893C13.8296 15.1893 13.8301 15.1895 13.8312 15.1901L13.8296 15.1893ZM13.8296 6.62887C13.8296 6.62884 13.8301 6.62856 13.8312 6.62812L13.8296 6.62887ZM7.36364 0.8H10.6364C10.6429 0.8 10.6489 0.800133 10.6545 0.800369V15.1996C10.6489 15.1999 10.6429 15.2 10.6364 15.2H7.36364C7.35713 15.2 7.35107 15.1999 7.34545 15.1996V0.800369C7.35107 0.800133 7.35713 0.8 7.36364 0.8ZM10.7159 0.810685C10.7158 0.810711 10.7153 0.810488 10.7143 0.809938L10.7159 0.810685ZM10.7159 15.1893C10.7159 15.1893 10.7154 15.1896 10.7143 15.1901L10.7159 15.1893ZM7.28414 15.1893C7.28415 15.1893 7.28469 15.1895 7.28572 15.1901L7.28414 15.1893ZM7.28414 0.810685C7.28412 0.810659 7.28463 0.810384 7.28572 0.809937L7.28414 0.810685Z" stroke="currentColor" fill="none" stroke-width="1.6" stroke-linecap="round" stroke-linejoin="round" />
		</symbol>
		<symbol id="chat" width="100%" height="100%" viewBox="0 0 18 16">
			<path fill-rule="evenodd" clip-rule="evenodd" d="M18 8C18 12.4183 13.9706 16 9 16C7.32191 16 5.75108 15.5918 4.40637 14.8809L0 16L1.50559 12.4312C0.554401 11.1626 0 9.63886 0 8C0 3.58172 4.02944 0 9 0C13.9706 0 18 3.58172 18 8ZM5.625 6.85714H3.375V9.14286H5.625V6.85714ZM14.625 6.85714H12.375V9.14286H14.625V6.85714ZM7.875 6.85714H10.125V9.14286H7.875V6.85714Z" fill="currentColor" />
		</symbol>
		<symbol id="chat-contur" width="100%" height="100%" viewBox="0 0 20 18">
			<path d="M6 9H6.01M10 9H10.01M14 9H14.01M19 9C19 13.4183 14.9706 17 10 17C8.46073 17 7.01172 16.6565 5.74467 16.0511L1 17L2.39499 13.28C1.51156 12.0423 1 10.5743 1 9C1 4.58172 5.02944 1 10 1C14.9706 1 19 4.58172 19 9Z" stroke="currentColor" fill="none" stroke-width="1.6" stroke-linecap="round" stroke-linejoin="round" />
		</symbol>
		<symbol id="check" width="100%" height="100%" viewBox="0 0 14 14">
			<path fill-rule="evenodd" clip-rule="evenodd" d="M7 14C10.866 14 14 10.866 14 7C14 3.13401 10.866 0 7 0C3.13401 0 0 3.13401 0 7C0 10.866 3.13401 14 7 14ZM10.2437 5.86872C10.5854 5.52701 10.5854 4.97299 10.2437 4.63128C9.90201 4.28957 9.34799 4.28957 9.00628 4.63128L6.125 7.51256L4.99372 6.38128C4.65201 6.03957 4.09799 6.03957 3.75628 6.38128C3.41457 6.72299 3.41457 7.27701 3.75628 7.61872L5.50628 9.36872C5.84799 9.71043 6.40201 9.71043 6.74372 9.36872L10.2437 5.86872Z" fill="currentColor" />
		</symbol>
		<symbol id="clipboard-list" width="100%" height="100%" viewBox="0 0 12 16">
			<path d="M5 0C4.44772 0 4 0.447715 4 1C4 1.55228 4.44772 2 5 2H7C7.55228 2 8 1.55228 8 1C8 0.447715 7.55228 0 7 0H5Z" fill="currentColor" />
			<path fill-rule="evenodd" clip-rule="evenodd" d="M0 3C0 1.89543 0.895431 1 2 1C2 2.65685 3.34315 4 5 4H7C8.65685 4 10 2.65685 10 1C11.1046 1 12 1.89543 12 3V14C12 15.1046 11.1046 16 10 16H2C0.895431 16 0 15.1046 0 14V3ZM3 7C2.44772 7 2 7.44772 2 8C2 8.55229 2.44772 9 3 9H3.01C3.56228 9 4.01 8.55229 4.01 8C4.01 7.44772 3.56228 7 3.01 7H3ZM6 7C5.44772 7 5 7.44772 5 8C5 8.55229 5.44772 9 6 9H9C9.55228 9 10 8.55229 10 8C10 7.44772 9.55228 7 9 7H6ZM3 11C2.44772 11 2 11.4477 2 12C2 12.5523 2.44772 13 3 13H3.01C3.56228 13 4.01 12.5523 4.01 12C4.01 11.4477 3.56228 11 3.01 11H3ZM6 11C5.44772 11 5 11.4477 5 12C5 12.5523 5.44772 13 6 13H9C9.55228 13 10 12.5523 10 12C10 11.4477 9.55228 11 9 11H6Z" fill="currentColor" />
		</symbol>
		<symbol id="compas" width="100%" height="100%" viewBox="0 0 16 16">
			<path d="M7.04313 7.04281C6.6525 7.43344 6.6525 8.06656 7.04313 8.45687C7.43344 8.8475 8.06688 8.8475 8.45719 8.45687C8.84781 8.06625 8.84781 7.43313 8.45719 7.04281C8.06656 6.6525 7.43344 6.6525 7.04313 7.04281ZM7.75 0C3.46969 0 0 3.46969 0 7.75C0 12.0303 3.46969 15.5 7.75 15.5C12.0303 15.5 15.5 12.0303 15.5 7.75C15.5 3.46969 12.0303 0 7.75 0ZM11.6919 4.62656L9.63031 9.1375C9.5306 9.35565 9.35565 9.5306 9.1375 9.63031L4.62687 11.6919C4.10656 11.9297 3.57031 11.3934 3.80813 10.8731L5.87 6.36219C5.96972 6.14404 6.14466 5.96909 6.36281 5.86938L10.8734 3.80781C11.3938 3.57031 11.9297 4.10625 11.6919 4.62656Z" fill="currentColor" />
		</symbol>
		<symbol id="concierge" width="100%" height="100%" viewBox="0 0 14 16">
			<path d="M4.90144 9.48486L4.70605 9.94215L6.58842 11.7647L8.47078 9.94212L8.27539 9.48486C7.21653 10.0145 5.96228 10.0155 4.90144 9.48486Z" fill="currentColor" />
			<path d="M3.60866 10.1145L2.12671 10.4439C0.891639 10.7182 0 11.8157 0 13.0947V15.9997H4.88389V13.4519L5.92257 12.4132L3.60866 10.1145Z" fill="currentColor" />
			<path d="M9.41172 0.94128C9.08909 0.699586 8.08237 0.00989196 6.61956 0.000103728C5.11835 -0.00987274 4.08336 0.702567 3.76465 0.94128V2.35295H9.41172C9.41172 1.56864 9.41172 1.72559 9.41172 0.94128Z" fill="currentColor" />
			<path d="M3.90508 6.9993C4.27537 8.12695 5.33655 8.94129 6.58806 8.94129C7.83961 8.94129 8.90075 8.12695 9.27107 6.9993C9.62803 6.86556 9.88218 6.52143 9.88218 6.11776C9.88218 5.76943 9.69285 5.46556 9.41159 5.3028V4.62524L7.91911 6.11776H5.25702L3.76453 4.62524V5.30283C3.48328 5.46559 3.29395 5.76946 3.29395 6.11779C3.29395 6.52143 3.54813 6.86556 3.90508 6.9993Z" fill="currentColor" />
			<path d="M7.52936 5.17655L9.41172 3.29419H3.76465L5.64701 5.17655H7.52936Z" fill="currentColor" />
			<path d="M11.05 10.4441L9.56801 10.1147L5.8252 13.8419V16H13.1766V13.0949C13.1766 11.8298 12.2985 10.7214 11.05 10.4441ZM10.8237 13.647H8.94131V12.7058H10.8237V13.647Z" fill="currentColor" />
		</symbol>
		<symbol id="cross" width="100%" height="100%" viewBox="0 0 12 12">
			<path fill-rule="evenodd" clip-rule="evenodd" d="M0.292893 0.292893C0.683417 -0.0976311 1.31658 -0.0976311 1.70711 0.292893L6 4.58579L10.2929 0.292893C10.6834 -0.0976311 11.3166 -0.0976311 11.7071 0.292893C12.0976 0.683417 12.0976 1.31658 11.7071 1.70711L7.41421 6L11.7071 10.2929C12.0976 10.6834 12.0976 11.3166 11.7071 11.7071C11.3166 12.0976 10.6834 12.0976 10.2929 11.7071L6 7.41421L1.70711 11.7071C1.31658 12.0976 0.683417 12.0976 0.292893 11.7071C-0.0976311 11.3166 -0.0976311 10.6834 0.292893 10.2929L4.58579 6L0.292893 1.70711C-0.0976311 1.31658 -0.0976311 0.683417 0.292893 0.292893Z" fill="currentColor" />
		</symbol>
		<symbol id="doc" width="100%" height="100%" viewBox="0 0 12 16">
			<path fill-rule="evenodd" clip-rule="evenodd" d="M0 2C0 0.895432 0.89543 0 2 0H6.58579C7.11622 0 7.62493 0.210714 8 0.585786L11.4142 4C11.7893 4.37507 12 4.88378 12 5.41421V14C12 15.1046 11.1046 16 10 16H2C0.89543 16 0 15.1046 0 14V2ZM2 8C2 7.44772 2.44772 7 3 7H9C9.55228 7 10 7.44772 10 8C10 8.55229 9.55228 9 9 9H3C2.44772 9 2 8.55229 2 8ZM3 11C2.44772 11 2 11.4477 2 12C2 12.5523 2.44772 13 3 13H9C9.55228 13 10 12.5523 10 12C10 11.4477 9.55228 11 9 11H3Z" fill="currentColor" />
		</symbol>
		<symbol id="doc-contur" width="100%" height="100%" viewBox="0 0 14 18">
			<path d="M4.42857 8.71428H9.57143M4.42857 12.1429H9.57143M11.2857 16.4286H2.71429C1.76751 16.4286 1 15.6611 1 14.7143V2.71429C1 1.76751 1.76751 1 2.71429 1H7.5021C7.72943 1 7.94745 1.09031 8.10819 1.25105L12.7489 5.89181C12.9097 6.05255 13 6.27057 13 6.4979V14.7143C13 15.6611 12.2325 16.4286 11.2857 16.4286Z" stroke="currentColor" fill="none" stroke-width="1.6" stroke-linecap="round" stroke-linejoin="round" />
		</symbol>
		<symbol id="door" width="100%" height="100%" viewBox="0 0 12 16">
			<path d="M11.5555 16C11.3103 16 11.1111 15.8008 11.1111 15.5556V0.88887H0.88887V15.5556C0.88887 15.8008 0.689765 16 0.444435 16C0.199106 16 0 15.8007 0 15.5556V0.444435C0 0.199106 0.199106 0 0.444435 0H11.5555C11.8008 0 11.9999 0.199106 11.9999 0.444435V15.5556C12 15.8008 11.8008 16 11.5555 16ZM10.5555 1.66668V15.5556H1.44444V1.66668H10.5555ZM3.66666 8.7222C3.66666 8.32337 3.39309 8.00002 3.05553 8.00002C2.71798 8.00002 2.44441 8.32337 2.44441 8.7222C2.44441 9.12107 2.71798 9.44446 3.05553 9.44446C3.39309 9.44446 3.66666 9.12107 3.66666 8.7222Z" fill="currentColor" />
		</symbol>
		<symbol id="edit" width="100%" height="100%" viewBox="0 0 18 17">
			<path d="M11 3.10004L2.40006 11.7C2.30006 11.8 2.30009 11.8 2.30009 11.9L1.00004 15.9C0.900037 16.3 1.30011 16.7 1.70011 16.6L3.30009 16.1L5.80009 15.3C5.90009 15.3 6.00004 15.2 6.00004 15.2L14.6 6.60004L11 3.10004Z" fill="currentColor"/>
			<path d="M16.7001 0.900037C15.7001 3.65973e-05 14.2001 3.65973e-05 13.2001 0.900037L12 2.10005L15.4 5.50001L16.6 4.30006C17.1 3.80006 17.3 3.20005 17.3 2.60005C17.4 2.00005 17.2001 1.30004 16.7001 0.900037Z" fill="currentColor"/>
		</symbol>
		<symbol id="emoji-smile" width="100%" height="100%" viewBox="0 0 20 20">
			<path d="M12.8284 12.8284C11.2663 14.3905 8.73367 14.3905 7.17157 12.8284M7 8H7.01M13 8H13.01M19 10C19 14.9706 14.9706 19 10 19C5.02944 19 1 14.9706 1 10C1 5.02944 5.02944 1 10 1C14.9706 1 19 5.02944 19 10Z" fill="none" stroke="currentColor" stroke-width="2" stroke-linecap="round" stroke-linejoin="round" />
		</symbol>
		<symbol id="eye" width="100%" height="100%" viewBox="0 0 14 12">
			<path d="M5.18759 6C5.18759 6.46413 5.37196 6.90925 5.70015 7.23744C6.02834 7.56563 6.47346 7.75 6.93759 7.75C7.40172 7.75 7.84684 7.56563 8.17503 7.23744C8.50322 6.90925 8.68759 6.46413 8.68759 6C8.68759 5.53587 8.50322 5.09075 8.17503 4.76256C7.84684 4.43437 7.40172 4.25 6.93759 4.25C6.47346 4.25 6.02834 4.43437 5.70015 4.76256C5.37196 5.09075 5.18759 5.53587 5.18759 6ZM13.722 5.59688C12.2407 2.47656 10.0017 0.90625 7.00009 0.90625C3.99696 0.90625 1.75947 2.47656 0.278215 5.59844C0.218802 5.72425 0.187988 5.86165 0.187988 6.00078C0.187988 6.13991 0.218802 6.27732 0.278215 6.40312C1.75947 9.52344 3.99853 11.0938 7.00009 11.0938C10.0032 11.0938 12.2407 9.52344 13.722 6.40156C13.8423 6.14844 13.8423 5.85469 13.722 5.59688ZM6.93759 8.75C5.41884 8.75 4.18759 7.51875 4.18759 6C4.18759 4.48125 5.41884 3.25 6.93759 3.25C8.45634 3.25 9.68759 4.48125 9.68759 6C9.68759 7.51875 8.45634 8.75 6.93759 8.75Z" fill="currentColor" />
		</symbol>
		<symbol id="eye-contur" width="100%" height="100%" viewBox="0 0 19 14">
			<path d="M17.1741 6.11029C17.5804 6.64171 17.5804 7.35914 17.1741 7.88971C15.8944 9.56029 12.8241 13 9.23955 13C5.65498 13 2.58469 9.56029 1.30497 7.88971C1.1073 7.63526 1 7.32222 1 7C1 6.67778 1.1073 6.36474 1.30497 6.11029C2.58469 4.43971 5.65498 1 9.23955 1C12.8241 1 15.8944 4.43971 17.1741 6.11029V6.11029Z" stroke="currentColor" stroke-width="1.6" stroke-linecap="round" stroke-linejoin="round" fill="none" />
			<path d="M9.2394 9.57145C10.6596 9.57145 11.8108 8.42018 11.8108 7.00002C11.8108 5.57986 10.6596 4.42859 9.2394 4.42859C7.81924 4.42859 6.66797 5.57986 6.66797 7.00002C6.66797 8.42018 7.81924 9.57145 9.2394 9.57145Z" stroke="currentColor" stroke-width="1.6" stroke-linecap="round" stroke-linejoin="round" fill="none" />
		</symbol>
		<symbol id="filter" width="100%" height="100%" viewBox="0 0 17 18">
			<path d="M8.76354 4.64583C8.76354 6.27277 7.44465 7.59167 5.81771 7.59167C4.19077 7.59167 2.87187 6.27277 2.87187 4.64583C2.87187 3.01889 4.19077 1.7 5.81771 1.7C7.44465 1.7 8.76354 3.01889 8.76354 4.64583Z" stroke="currentColor" stroke-width="1.9" fill="none" />
			<rect x="0.516504" y="3.67861" width="3.05735" height="1.93445" rx="0.967225" fill="currentColor" stroke="currentColor" stroke-width="0.3" />
			<circle cx="11.0031" cy="13.2155" r="2.94583" transform="rotate(-180 11.0031 13.2155)" stroke="currentColor" stroke-width="1.9" fill="none" />
			<rect x="8.71328" y="3.67861" width="7.20821" height="1.93445" rx="0.967225" fill="currentColor" stroke="currentColor" stroke-width="0.3" />
			<rect x="8.10801" y="14.1827" width="7.21167" height="1.93445" rx="0.967225" transform="rotate(-180 8.10801 14.1827)" fill="currentColor" stroke="currentColor" stroke-width="0.3" />
			<rect x="16.2188" y="14.1827" width="2.62969" height="1.93445" rx="0.967224" transform="rotate(-180 16.2188 14.1827)" fill="currentColor" stroke="currentColor" stroke-width="0.3" />
		</symbol>
		<symbol id="gal-ochka" width="100%" height="100%" viewBox="0 0 12 10">
			<path d="M6.23497 8.79934C5.9649 9.16589 5.54433 9.39118 5.0896 9.41357C4.63487 9.43619 4.19445 9.25292 3.88975 8.91452L1.15929 5.88444C0.725328 5.40316 0.763876 4.66128 1.24515 4.22732C1.72689 3.79336 2.46831 3.83214 2.90227 4.31365L4.83407 6.45758C4.8627 6.48944 4.90425 6.50652 4.94695 6.50444C4.98988 6.50236 5.02912 6.4809 5.05475 6.44673L9.02546 1.06128C9.40979 0.539605 10.1443 0.428577 10.6662 0.813137C11.1876 1.1977 11.2984 1.93219 10.9139 2.45363L6.23497 8.79934Z" fill="currentColor" />
		</symbol>
		<symbol id="gal-ochka-1" width="100%" height="100%" viewBox="0 0 14 14">
			<path fill-rule="evenodd" clip-rule="evenodd" d="M7 14C10.866 14 14 10.866 14 7C14 3.13401 10.866 0 7 0C3.13401 0 0 3.13401 0 7C0 10.866 3.13401 14 7 14ZM10.2437 5.86872C10.5854 5.52701 10.5854 4.97299 10.2437 4.63128C9.90201 4.28957 9.34799 4.28957 9.00628 4.63128L6.125 7.51256L4.99372 6.38128C4.65201 6.03957 4.09799 6.03957 3.75628 6.38128C3.41457 6.72299 3.41457 7.27701 3.75628 7.61872L5.50628 9.36872C5.84799 9.71043 6.40201 9.71043 6.74372 9.36872L10.2437 5.86872Z" fill="currentColor" />
		</symbol>
		<symbol id="glazing" width="100%" height="100%" viewBox="0 0 12 16">
			<path d="M5.33334 0H0V7.46666H5.33334V0Z" fill="currentColor" />
			<path d="M5.33334 8.53345H0V16.0001H5.33334V8.53345Z" fill="currentColor" />
			<path d="M11.7337 0H6.40039V7.46666H11.7337V0Z" fill="currentColor" />
			<path d="M11.7337 8.53345H6.40039V16.0001H11.7337V8.53345Z" fill="currentColor" />
		</symbol>
		<symbol id="heart" width="100%" height="100%" viewBox="0 0 20 18">
			<path d="M2.31802 2.31802C0.56066 4.07538 0.56066 6.92462 2.31802 8.68198L10.0001 16.364L17.682 8.68198C19.4393 6.92462 19.4393 4.07538 17.682 2.31802C15.9246 0.56066 13.0754 0.56066 11.318 2.31802L10.0001 3.63609L8.68198 2.31802C6.92462 0.56066 4.07538 0.56066 2.31802 2.31802Z" fill="currentColor" stroke="currentColor" stroke-width="1.6" stroke-linecap="round" stroke-linejoin="round" />
		</symbol>
		<symbol id="heart-contur" width="100%" height="100%" viewBox="0 0 20 18">
			<path d="M2.31802 2.31802C0.56066 4.07538 0.56066 6.92462 2.31802 8.68198L10.0001 16.364L17.682 8.68198C19.4393 6.92462 19.4393 4.07538 17.682 2.31802C15.9246 0.56066 13.0754 0.56066 11.318 2.31802L10.0001 3.63609L8.68198 2.31802C6.92462 0.56066 4.07538 0.56066 2.31802 2.31802Z" fill="none" stroke="currentColor" stroke-width="1.6" stroke-linecap="round" stroke-linejoin="round" />
		</symbol>
		<symbol id="home-contur" width="100%" height="100%" viewBox="0 0 18 18">
			<path d="M1 9L2.77778 7.22222M2.77778 7.22222L9 1L15.2222 7.22222M2.77778 7.22222V16.1111C2.77778 16.602 3.17575 17 3.66667 17H6.33333M15.2222 7.22222L17 9M15.2222 7.22222V16.1111C15.2222 16.602 14.8243 17 14.3333 17H11.6667M6.33333 17C6.82425 17 7.22222 16.602 7.22222 16.1111V12.5556C7.22222 12.0646 7.62019 11.6667 8.11111 11.6667H9.88889C10.3798 11.6667 10.7778 12.0646 10.7778 12.5556V16.1111C10.7778 16.602 11.1757 17 11.6667 17M6.33333 17H11.6667" stroke="currentColor" fill="none" stroke-width="1.6" stroke-linecap="round" stroke-linejoin="round"/>
		</symbol>
		<symbol id="house-1" width="100%" height="100%" viewBox="0 0 14 16">
			<path fill-rule="evenodd" clip-rule="evenodd" d="M1 2C1 0.89543 1.89543 0 3 0H11C12.1046 0 13 0.895431 13 2V14C13.5523 14 14 14.4477 14 15C14 15.5523 13.5523 16 13 16H10C9.44771 16 9 15.5523 9 15V13C9 12.4477 8.55229 12 8 12H6C5.44772 12 5 12.4477 5 13V15C5 15.5523 4.55228 16 4 16H1C0.447715 16 0 15.5523 0 15C0 14.4477 0.447715 14 1 14V2ZM4 3H6V5H4V3ZM6 7H4V9H6V7ZM8 3H10V5H8V3ZM10 7H8V9H10V7Z" fill="currentColor" />
		</symbol>
		<symbol id="i" width="100%" height="100%" viewBox="0 0 20 20">
			<path d="M11 14H10V10H9M10 6H10.01M19 10C19 14.9706 14.9706 19 10 19C5.02944 19 1 14.9706 1 10C1 5.02944 5.02944 1 10 1C14.9706 1 19 5.02944 19 10Z" stroke="currentColor" fill="none" stroke-width="2" stroke-linecap="round" stroke-linejoin="round" />
		</symbol>
		<symbol id="key" width="100%" height="100%" viewBox="0 0 14 14">
			<path fill-rule="evenodd" clip-rule="evenodd" d="M13.4001 5.4001C13.4001 8.05106 11.2511 10.2001 8.6001 10.2001C8.11516 10.2001 7.64702 10.1282 7.20575 9.99444L5.4001 11.8001H3.8001V13.4001H0.600098V10.2001L4.00575 6.79444C3.87201 6.35318 3.8001 5.88504 3.8001 5.4001C3.8001 2.74913 5.94913 0.600098 8.6001 0.600098C11.2511 0.600098 13.4001 2.74913 13.4001 5.4001ZM8.6001 2.2001C8.15827 2.2001 7.8001 2.55827 7.8001 3.0001C7.8001 3.44193 8.15827 3.8001 8.6001 3.8001C9.48375 3.8001 10.2001 4.51644 10.2001 5.4001C10.2001 5.84193 10.5583 6.2001 11.0001 6.2001C11.4419 6.2001 11.8001 5.84193 11.8001 5.4001C11.8001 3.63279 10.3674 2.2001 8.6001 2.2001Z" fill="currentColor" />
		</symbol>
		<symbol id="lift" width="100%" height="100%" viewBox="0 0 16 13">
			<path d="M5.31362 0H0V12.2516H5.31362V0Z" fill="currentColor" />
			<path d="M11.5646 0H6.25098V12.2516H11.5646V0Z" fill="currentColor" />
			<path d="M14.3421 1.23706L12.6846 2.89469L13.3475 3.55769L13.8733 3.0319V4.71319H14.811V3.0319L15.3368 3.55769L15.9998 2.89469L14.3421 1.23706Z" fill="currentColor" />
			<path d="M15.3368 8.69459L14.811 9.22034V7.53906H13.8733V9.22034L13.3475 8.69459L12.6846 9.35759L14.3421 11.0152L15.9998 9.35759L15.3368 8.69459Z" fill="currentColor" />
		</symbol>
		<symbol id="lift-1" width="100%" height="100%" viewBox="0 0 16 16">
			<path d="M0 0.3125V15.6863C0 15.8588 0.139906 15.9988 0.3125 15.9988H2.01688V4.89562C2.01688 4.63675 2.22675 4.42687 2.48563 4.42687H13.5144C13.7732 4.42687 13.9831 4.63675 13.9831 4.89562V15.9988H15.6875C15.8601 15.9988 16 15.8588 16 15.6863V0.3125C16 0.139906 15.8601 0 15.6875 0H0.3125C0.139906 0 0 0.139906 0 0.3125ZM6.32281 3.16125C6.11188 3.31094 5.81906 3.26188 5.66906 3.05094L5.24281 2.45156L4.81656 3.05094C4.66625 3.26188 4.37375 3.31125 4.16281 3.16125C3.95188 3.01094 3.9025 2.71844 4.0525 2.5075L4.86062 1.37125C5.0475 1.10875 5.43781 1.10875 5.62469 1.37125L6.43281 2.5075C6.58313 2.71844 6.53375 3.01094 6.32281 3.16125ZM11.9475 1.91469L11.1394 3.05094C10.9525 3.31313 10.5622 3.31344 10.3753 3.05094L9.56719 1.91469C9.41687 1.70375 9.46625 1.41125 9.67719 1.26094C9.88813 1.11094 10.1809 1.16031 10.3309 1.37125L10.7572 1.97063L11.1834 1.37125C11.3337 1.16031 11.6263 1.11094 11.8372 1.26094C12.0481 1.41125 12.0975 1.70375 11.9475 1.91469ZM8.46875 15.9988H13.0456V5.36437H8.46875V15.9988ZM2.95438 15.9988H7.53125V5.36437H2.95438V15.9988Z" fill="currentColor" />
		</symbol>
		<symbol id="link" width="100%" height="100%" viewBox="0 0 16 16">
			<path d="M10.3272 3.1272C11.0302 2.42425 12.1699 2.42425 12.8728 3.1272C13.5758 3.83014 13.5758 4.96984 12.8728 5.67278L10.1728 8.37278C9.46988 9.07572 8.33018 9.07572 7.62724 8.37278C7.27577 8.02131 6.70592 8.02131 6.35445 8.37278C6.00298 8.72425 6.00298 9.2941 6.35445 9.64557C7.76034 11.0515 10.0397 11.0515 11.4456 9.64557L14.1456 6.94557C15.5515 5.53968 15.5515 3.26029 14.1456 1.8544C12.7397 0.448516 10.4603 0.448516 9.05445 1.8544L7.70445 3.2044C7.35298 3.55587 7.35298 4.12572 7.70445 4.4772C8.05592 4.82867 8.62577 4.82867 8.97724 4.4772L10.3272 3.1272Z" fill="currentColor" />
			<path d="M5.82726 7.62719C6.5302 6.92425 7.6699 6.92425 8.37284 7.62719C8.72431 7.97867 9.29416 7.97867 9.64563 7.62719C9.99711 7.27572 9.99711 6.70587 9.64563 6.3544C8.23975 4.94852 5.96035 4.94852 4.55446 6.3544L1.85446 9.0544C0.448577 10.4603 0.448577 12.7397 1.85446 14.1456C3.26035 15.5515 5.53975 15.5515 6.94563 14.1456L8.29563 12.7956C8.6471 12.4441 8.6471 11.8743 8.29563 11.5228C7.94416 11.1713 7.37431 11.1713 7.02284 11.5228L5.67284 12.8728C4.9699 13.5757 3.8302 13.5757 3.12726 12.8728C2.42431 12.1698 2.42431 11.0301 3.12726 10.3272L5.82726 7.62719Z" fill="currentColor" />
		</symbol>
		<symbol id="lock" width="100%" height="100%" viewBox="0 0 16 18">
			<path d="M11.5 8.11111V8.91111H12.3V8.11111H11.5ZM4.5 8.11111H3.7V8.91111H4.5V8.11111ZM8.8 11.6667C8.8 11.2248 8.44183 10.8667 8 10.8667C7.55817 10.8667 7.2 11.2248 7.2 11.6667H8.8ZM7.2 13.4444C7.2 13.8863 7.55817 14.2444 8 14.2444C8.44183 14.2444 8.8 13.8863 8.8 13.4444H7.2ZM2.75 8.91111H13.25V7.31111H2.75V8.91111ZM14.2 9.88889V15.2222H15.8V9.88889H14.2ZM13.25 16.2H2.75V17.8H13.25V16.2ZM1.8 15.2222V9.88889H0.2V15.2222H1.8ZM2.75 16.2C2.23716 16.2 1.8 15.7742 1.8 15.2222H0.2C0.2 16.634 1.32984 17.8 2.75 17.8V16.2ZM14.2 15.2222C14.2 15.7742 13.7628 16.2 13.25 16.2V17.8C14.6702 17.8 15.8 16.634 15.8 15.2222H14.2ZM13.25 8.91111C13.7628 8.91111 14.2 9.33695 14.2 9.88889H15.8C15.8 8.47715 14.6702 7.31111 13.25 7.31111V8.91111ZM2.75 7.31111C1.32984 7.31111 0.2 8.47715 0.2 9.88889H1.8C1.8 9.33695 2.23716 8.91111 2.75 8.91111V7.31111ZM10.7 4.55556V8.11111H12.3V4.55556H10.7ZM11.5 7.31111H4.5V8.91111H11.5V7.31111ZM5.3 8.11111V4.55556H3.7V8.11111H5.3ZM8 1.8C9.47934 1.8 10.7 3.02178 10.7 4.55556H12.3C12.3 2.16197 10.3867 0.2 8 0.2V1.8ZM8 0.2C5.61334 0.2 3.7 2.16197 3.7 4.55556H5.3C5.3 3.02178 6.52066 1.8 8 1.8V0.2ZM7.2 11.6667V13.4444H8.8V11.6667H7.2Z" fill="currentColor"/>
		</symbol>
		<symbol id="menu" width="100%" height="100%" viewBox="0 0 18 14">
			<path d="M1 1H17M1 7H17M1 13H17" fill="none" stroke="currentColor" stroke-width="2" stroke-linecap="round" stroke-linejoin="round" />
		</symbol>
		<symbol id="minus" width="100%" height="100%" viewBox="0 0 6 2">
			<path  d="M5.27734 1.66406H0.792969V0.331055H5.27734V1.66406Z" fill="currentColor"/>
		</symbol>
		<symbol id="no-stonks" width="100%" height="100%" viewBox="0 0 20 12">
			<path d="M11 11H19M19 11V3M19 11L11 3L7 7L1 1" stroke="currentColor" fill="none" stroke-width="2" stroke-linecap="round" stroke-linejoin="round" />
		</symbol>
		<symbol id="note" width="100%" height="100%" viewBox="0 0 18 20">
			<path d="M12 15H17L15.5951 13.5951C15.2141 13.2141 15 12.6973 15 12.1585V9C15 6.38757 13.3304 4.16509 11 3.34142V3C11 1.89543 10.1046 1 9 1C7.89543 1 7 1.89543 7 3V3.34142C4.66962 4.16509 3 6.38757 3 9V12.1585C3 12.6973 2.78595 13.2141 2.40493 13.5951L1 15H6M12 15V16C12 17.6569 10.6569 19 9 19C7.34315 19 6 17.6569 6 16V15M12 15H6" stroke="currentColor" fill="currentColor" stroke-width="1.6" stroke-linecap="round" stroke-linejoin="round" />
		</symbol>
		<symbol id="note-contur" width="100%" height="100%" viewBox="0 0 18 20">
			<path d="M12 15H17L15.5951 13.5951C15.2141 13.2141 15 12.6973 15 12.1585V9C15 6.38757 13.3304 4.16509 11 3.34142V3C11 1.89543 10.1046 1 9 1C7.89543 1 7 1.89543 7 3V3.34142C4.66962 4.16509 3 6.38757 3 9V12.1585C3 12.6973 2.78595 13.2141 2.40493 13.5951L1 15H6M12 15V16C12 17.6569 10.6569 19 9 19C7.34315 19 6 17.6569 6 16V15M12 15H6" stroke="currentColor" fill="none" stroke-width="1.6" stroke-linecap="round" stroke-linejoin="round" />
		</symbol>
		<symbol id="paperclip" width="100%" height="100%" viewBox="0 0 19 20">
			<path d="M12.1716 5L5.58579 11.5858C4.80474 12.3668 4.80474 13.6332 5.58579 14.4142C6.36684 15.1953 7.63317 15.1953 8.41421 14.4142L14.8284 7.82843C16.3905 6.26633 16.3905 3.73367 14.8284 2.17157C13.2663 0.609476 10.7337 0.609476 9.17157 2.17157L2.75736 8.75736C0.414214 11.1005 0.414214 14.8995 2.75736 17.2426C5.1005 19.5858 8.89949 19.5858 11.2426 17.2426L17.5 11" fill="none" stroke="currentColor" stroke-width="2" stroke-linecap="round" stroke-linejoin="round" />
		</symbol>
		<symbol id="parking" width="100%" height="100%" viewBox="0 0 16 16">
			<path d="M7.68155 5.21606C7.27554 5.21606 7.00777 5.25506 6.85352 5.29441V7.89898C7.02971 7.93833 7.23654 7.95121 7.52451 7.95121C8.58479 7.95121 9.23907 7.41428 9.23907 6.51173C9.23941 5.70007 8.67602 5.21606 7.68155 5.21606Z" fill="currentColor" />
			<path d="M13.7523 0H1.89528C0.848226 0 0 0.848574 0 1.89528V14.1051C0 15.1518 0.848574 16 1.89528 16H13.7523C14.7994 16 15.6473 15.1514 15.6473 14.1051V1.89528C15.6476 0.848226 14.7994 0 13.7523 0ZM14.4797 13.8011C14.4797 14.3711 14.018 14.8321 13.4487 14.8321H2.17732C1.60766 14.8321 1.14594 14.3704 1.14594 13.8011V2.2212C1.14594 1.65188 1.60766 1.19016 2.17732 1.19016H13.4484C14.018 1.19016 14.4794 1.65188 14.4794 2.2212L14.4797 13.8011Z" fill="currentColor" />
			<path d="M13.4484 1.91772H2.17738C2.00954 1.91772 1.87305 2.05352 1.87305 2.22171V13.8016C1.87305 13.9687 2.00919 14.1056 2.17738 14.1056H13.4484C13.6159 14.1056 13.7524 13.9691 13.7524 13.8016V2.22136C13.7524 2.05352 13.6162 1.91772 13.4484 1.91772ZM10.4075 8.55416C9.7275 9.1952 8.71631 9.48316 7.53799 9.48316C7.27649 9.48316 7.05259 9.46993 6.85411 9.44382V12.6062H4.89268V3.89413C5.5097 3.78932 6.36767 3.71063 7.58499 3.71063C8.81555 3.71063 9.69024 3.94636 10.2797 4.41783C10.8421 4.86249 11.2209 5.59581 11.2209 6.45936C11.2209 7.32395 10.9319 8.05727 10.4075 8.55416Z" fill="currentColor" />
		</symbol>
		<symbol id="pause" width="100%" height="100%" viewBox="0 0 6 6">
			<path d="M0 0.428572C0 0.191878 0.268629 0 0.6 0H1.8C2.13137 0 2.4 0.191878 2.4 0.428571V5.57143C2.4 5.80812 2.13137 6 1.8 6H0.6C0.268629 6 0 5.80812 0 5.57143V0.428572Z" fill="currentColor"/>
			<path d="M3.6 0.428572C3.6 0.191878 3.86863 0 4.2 0H5.4C5.73137 0 6 0.191878 6 0.428571V5.57143C6 5.80812 5.73137 6 5.4 6H4.2C3.86863 6 3.6 5.80812 3.6 5.57143V0.428572Z" fill="currentColor"/>
		</symbol>
		<symbol id="play" width="100%" height="100%" viewBox="0 0 47 52">
			<path d="M44.2443 21.5775L8.19476 0.660181C5.26574 -1.03853 0.780029 0.609923 0.780029 4.81147V46.636C0.780029 50.4053 4.94826 52.677 8.19476 50.7873L44.2443 29.8801C47.4601 28.0205 47.4703 23.437 44.2443 21.5775Z" fill="currentColor" />
		</symbol>
		<symbol id="plus" width="100%" height="100%" viewBox="0 0 14 14">
			<path d="M7 1V7M7 7V13M7 7H13M7 7L1 7" fill="none" stroke="currentColor" stroke-width="2" stroke-linecap="round" stroke-linejoin="round"/>
		</symbol>
		<symbol id="search" width="100%" height="100%" viewBox="0 0 20 20">
			<path d="M19 19L13 13M15 8C15 11.866 11.866 15 8 15C4.13401 15 1 11.866 1 8C1 4.13401 4.13401 1 8 1C11.866 1 15 4.13401 15 8Z" stroke="currentColor" stroke-width="2" stroke-linecap="round" stroke-linejoin="round" fill="none" />
		</symbol>
		<symbol id="search-1" width="100%" height="100%" viewBox="0 0 18 18">
			<path d="M4.87876 11.9899C4.56634 12.3023 4.56634 12.8088 4.87876 13.1212C5.19118 13.4337 5.69771 13.4337 6.01013 13.1212L4.87876 11.9899ZM11.7556 8.11111C11.7556 9.14204 10.9198 9.97778 9.88889 9.97778V11.5778C11.8035 11.5778 13.3556 10.0257 13.3556 8.11111H11.7556ZM8.02222 8.11111C8.02222 7.08018 8.85796 6.24444 9.88889 6.24444V4.64444C7.9743 4.64444 6.42222 6.19652 6.42222 8.11111H8.02222ZM9.88889 6.24444C10.9198 6.24444 11.7556 7.08018 11.7556 8.11111H13.3556C13.3556 6.19652 11.8035 4.64444 9.88889 4.64444V6.24444ZM7.43759 9.43104L4.87876 11.9899L6.01013 13.1212L8.56896 10.5624L7.43759 9.43104ZM9.88889 9.97778C9.3732 9.97778 8.90763 9.76972 8.56896 9.43104L7.43759 10.5624C8.06405 11.1889 8.93182 11.5778 9.88889 11.5778V9.97778ZM8.56896 9.43104C8.23028 9.09237 8.02222 8.6268 8.02222 8.11111H6.42222C6.42222 9.06818 6.81112 9.93595 7.43759 10.5624L8.56896 9.43104ZM16.2 9C16.2 12.9765 12.9765 16.2 9 16.2V17.8C13.8601 17.8 17.8 13.8601 17.8 9H16.2ZM9 16.2C5.02355 16.2 1.8 12.9765 1.8 9H0.2C0.2 13.8601 4.13989 17.8 9 17.8V16.2ZM1.8 9C1.8 5.02355 5.02355 1.8 9 1.8V0.2C4.13989 0.2 0.2 4.13989 0.2 9H1.8ZM9 1.8C12.9765 1.8 16.2 5.02355 16.2 9H17.8C17.8 4.13989 13.8601 0.2 9 0.2V1.8Z" fill="currentColor" />
		</symbol>
		<symbol id="settings" width="100%" height="100%" viewBox="0 0 17 17">
			<path d="M7.19693 2.52457C7.52858 1.15848 9.47142 1.15848 9.80307 2.52457C10.0173 3.40706 11.0284 3.82585 11.8039 3.35333C13.0043 2.62186 14.3781 3.99566 13.6467 5.19614C13.1742 5.97164 13.5929 6.98269 14.4754 7.19693C15.8415 7.52858 15.8415 9.47142 14.4754 9.80307C13.5929 10.0173 13.1742 11.0284 13.6467 11.8039C14.3781 13.0043 13.0043 14.3781 11.8039 13.6467C11.0284 13.1742 10.0173 13.5929 9.80307 14.4754C9.47142 15.8415 7.52858 15.8415 7.19693 14.4754C6.98269 13.5929 5.97164 13.1742 5.19615 13.6467C3.99566 14.3781 2.62186 13.0043 3.35333 11.8039C3.82585 11.0284 3.40706 10.0173 2.52457 9.80307C1.15848 9.47142 1.15848 7.52858 2.52457 7.19693C3.40706 6.98269 3.82585 5.97164 3.35333 5.19614C2.62186 3.99566 3.99566 2.62186 5.19614 3.35333C5.97164 3.82585 6.98269 3.40706 7.19693 2.52457Z" stroke="currentColor" stroke-width="1.6" stroke-linecap="round" stroke-linejoin="round" fill="none" />
			<path d="M10.8333 8.5C10.8333 9.78866 9.78866 10.8333 8.5 10.8333C7.21134 10.8333 6.16667 9.78866 6.16667 8.5C6.16667 7.21134 7.21134 6.16667 8.5 6.16667C9.78866 6.16667 10.8333 7.21134 10.8333 8.5Z" stroke="currentColor" stroke-width="1.6" stroke-linecap="round" stroke-linejoin="round" fill="none" />
		</symbol>
		<symbol id="send" width="100%" height="100%" viewBox="0 0 20 20">
			<path d="M19.309 11.118C19.7325 10.9063 20 10.4735 20 9.99999C20 9.52652 19.7325 9.0937 19.309 8.88196L1.80906 0.131978C1.36569 -0.0897087 0.833206 -0.028451 0.451756 0.288126C0.0703029 0.604702 -0.0880337 1.11678 0.0481471 1.59341L1.83385 7.84338C1.98717 8.38001 2.47766 8.74998 3.03575 8.74998L8.75003 8.74998C9.44038 8.74998 10 9.30962 10 9.99997C10 10.6903 9.44038 11.25 8.75003 11.25L3.03576 11.25C2.47766 11.25 1.98718 11.6199 1.83386 12.1566L0.0481464 18.4066C-0.0880345 18.8832 0.0703021 19.3953 0.451755 19.7118C0.833205 20.0284 1.36569 20.0897 1.80906 19.868L19.309 11.118Z" fill="currentColor" />
		</symbol>
		<symbol id="share" width="100%" height="100%" viewBox="0 0 20 16">
			<path d="M11.1637 4.89684V1L15.5129 5.23809L19 8.63612L15.451 11.5182L11.1637 15V11.1869C3.63703 10.6341 1 14.8784 1 14.8784C1 12.234 1.2236 9.48968 3.35706 7.4116C5.83702 4.99408 9.42852 4.82301 11.1637 4.89684Z" stroke="currentColor" fill="none" stroke-width="1.8" stroke-linecap="round" stroke-linejoin="round" />
		</symbol>
		<symbol id="star" width="100%" height="100%" viewBox="0 0 13 12">
			<path d="M6.30946 9.94987L2.41073 12L3.15536 7.65851L0 4.58336L4.35915 3.94989L6.30946 0L8.25914 3.94989L12.6183 4.58336L9.46356 7.65851L10.2088 12L6.30946 9.94987Z" fill="currentColor" />
		</symbol>
		<symbol id="status-read" width="100%" height="100%" viewBox="0 0 16 9">
			<path fill-rule="evenodd" clip-rule="evenodd" d="M11.0117 0.175479L3.92654 7.51817L0.985313 4.51674L0.907824 4.45063C0.688982 4.29548 0.380619 4.30952 0.177436 4.49742C-0.0511458 4.7088 -0.0600504 5.06016 0.157546 5.28221L3.51587 8.70927L3.5966 8.77767C3.82476 8.93714 4.14704 8.91303 4.34666 8.70616L11.8455 0.934729L11.909 0.855814C12.056 0.63474 12.024 0.336472 11.8194 0.150106C11.5891 -0.0595548 11.2275 -0.0481954 11.0117 0.175479ZM15.0098 0.177385L7.58122 7.94881L7.51807 8.02802C7.37214 8.24976 7.40556 8.54788 7.61113 8.73331C7.84239 8.94192 8.20395 8.92891 8.4187 8.70425L15.8473 0.932824L15.9104 0.85362C16.0563 0.631878 16.0229 0.333759 15.8174 0.148329C15.5861 -0.0602796 15.2245 -0.0472711 15.0098 0.177385Z" fill="currentColor" />
		</symbol>
		<symbol id="to-right" width="100%" height="100%" viewBox="0 0 6 10">
			<path d="M4.09404 5L0.231231 1.29326C-0.0770772 0.997411 -0.0770772 0.517741 0.231231 0.221889C0.53954 -0.0739629 1.03941 -0.0739629 1.34772 0.221889L5.76877 4.46431C6.07708 4.76016 6.07708 5.23984 5.76877 5.53569L1.34772 9.77811C1.03941 10.074 0.53954 10.074 0.231231 9.77811C-0.0770772 9.48226 -0.0770772 9.00259 0.231231 8.70674L4.09404 5Z" fill="currentColor" />
		</symbol>
		<symbol id="to-right-double" width="100%" height="100%" viewBox="0 0 13 12">
			<path fill-rule="evenodd" clip-rule="evenodd" d="M0.292893 11.7071C0.683417 12.0976 1.31658 12.0976 1.70711 11.7071L6.70711 6.70711C7.09763 6.31658 7.09763 5.68342 6.70711 5.29289L1.70711 0.292894C1.31658 -0.0976307 0.683417 -0.0976306 0.292893 0.292894C-0.0976305 0.683418 -0.0976305 1.31658 0.292893 1.70711L4.58579 6L0.292893 10.2929C-0.0976305 10.6834 -0.0976305 11.3166 0.292893 11.7071ZM6.29289 11.7071C6.68342 12.0976 7.31658 12.0976 7.70711 11.7071L12.7071 6.70711C13.0976 6.31658 13.0976 5.68342 12.7071 5.29289L7.70711 0.292894C7.31658 -0.0976312 6.68342 -0.0976312 6.29289 0.292894C5.90237 0.683418 5.90237 1.31658 6.29289 1.70711L10.5858 6L6.29289 10.2929C5.90237 10.6834 5.90237 11.3166 6.29289 11.7071Z" fill="currentColor" />
		</symbol>
		<symbol id="to-left" width="100%" height="100%" viewBox="0 0 11 18">
			<path d="M3.76777 9L9.88388 2.88388C10.372 2.39573 10.372 1.60427 9.88388 1.11612C9.39573 0.627961 8.60427 0.627961 8.11612 1.11612L1.11612 8.11612C0.62796 8.60427 0.62796 9.39573 1.11612 9.88388L8.11612 16.8839C8.60427 17.372 9.39573 17.372 9.88388 16.8839C10.372 16.3957 10.372 15.6043 9.88388 15.1161L3.76777 9Z" fill="currentColor" />
		</symbol>
		<symbol id="to-left-double" width="100%" height="100%" viewBox="0 0 13 12">
			<path fill-rule="evenodd" clip-rule="evenodd" d="M12.7071 11.7071C12.3166 12.0976 11.6834 12.0976 11.2929 11.7071L6.29289 6.70711C5.90237 6.31658 5.90237 5.68342 6.29289 5.29289L11.2929 0.292894C11.6834 -0.0976307 12.3166 -0.0976306 12.7071 0.292894C13.0976 0.683418 13.0976 1.31658 12.7071 1.70711L8.41421 6L12.7071 10.2929C13.0976 10.6834 13.0976 11.3166 12.7071 11.7071ZM6.70711 11.7071C6.31658 12.0976 5.68342 12.0976 5.29289 11.7071L0.292894 6.70711C-0.0976312 6.31658 -0.0976312 5.68342 0.292894 5.29289L5.29289 0.292894C5.68342 -0.0976312 6.31658 -0.0976312 6.70711 0.292894C7.09763 0.683418 7.09763 1.31658 6.70711 1.70711L2.41421 6L6.70711 10.2929C7.09763 10.6834 7.09763 11.3166 6.70711 11.7071Z" fill="currentColor" />
		</symbol>
		<symbol id="to-down" width="100%" height="100%" viewBox="0 0 10 6">
			<path d="M5 4.09404L8.70674 0.231231C9.00259 -0.0770772 9.48226 -0.0770772 9.77811 0.231231C10.074 0.53954 10.074 1.03941 9.77811 1.34772L5.53569 5.76877C5.23983 6.07708 4.76016 6.07708 4.46431 5.76877L0.221888 1.34772C-0.0739642 1.03941 -0.0739641 0.53954 0.221888 0.231231C0.517739 -0.0770776 0.997412 -0.0770775 1.29326 0.231231L5 4.09404Z" fill="currentColor" />
		</symbol>
		<symbol id="triangle-left" width="100%" height="100%" viewBox="0 0 5 6">
			<path d="M0.499999 3.86603C-0.166668 3.48112 -0.166667 2.51888 0.5 2.13397L3.5 0.401923C4.16667 0.0170233 5 0.498149 5 1.26795L5 4.73205C5 5.50185 4.16667 5.98298 3.5 5.59808L0.499999 3.86603Z" fill="currentColor" />
		</symbol>
		<symbol id="triangle-right" width="100%" height="100%" viewBox="0 0 5 6">
			<path d="M4.5 3.86603C5.16667 3.48112 5.16667 2.51888 4.5 2.13397L1.5 0.401923C0.833332 0.0170233 2.84205e-07 0.498149 2.50556e-07 1.26795L9.91352e-08 4.73205C6.54861e-08 5.50185 0.833334 5.98298 1.5 5.59808L4.5 3.86603Z" fill="currentColor" />
		</symbol>
		<symbol id="user" width="100%" height="100%" viewBox="0 0 62 66">
			<path d="M31 26.625C38.2487 26.625 44.125 20.7487 44.125 13.5C44.125 6.25126 38.2487 0.375 31 0.375C23.7513 0.375 17.875 6.25126 17.875 13.5C17.875 20.7487 23.7513 26.625 31 26.625Z" fill="currentColor" />
			<path d="M0.375 66C0.375 49.0863 14.0863 35.375 31 35.375C47.9137 35.375 61.625 49.0863 61.625 66H0.375Z" fill="currentColor" />
		</symbol>
		<symbol id="wheelchair" width="100%" height="100%" viewBox="0 0 16 16">
			<path d="M11.6916 10.2297C14.1044 10.0063 16 7.97031 16 5.5C16 2.46719 13.5328 0 10.5 0C9.95644 0 8.81772 0 8.5 0C8.22388 0 8 0.223844 8 0.5C8 0.776156 8.22388 1 8.5 1H9V5H2.5V3C2.5 2.17287 1.82709 1.5 1 1.5H0.5C0.223875 1.5 0 1.72384 0 2C0 2.27616 0.223875 2.5 0.5 2.5H1C1.27569 2.5 1.5 2.72431 1.5 3V5.5C1.5 7.97031 3.39563 10.0063 5.80875 10.2297C5.81188 10.2297 5.79572 10.22 7.903 11.7613C6.29209 12.9395 6.35406 12.889 6.35719 12.8916C5.22162 11.9692 3.50531 12.7763 3.50531 14.25C3.50531 15.215 4.29031 16 5.25531 16C6.43706 16 7.28428 14.8437 6.92219 13.7175L8.74997 12.3807L10.5828 13.7212C10.2232 14.8421 11.0634 16 12.2475 16C13.2109 16 13.9947 15.2162 13.9947 14.2525C13.9947 12.7789 12.2783 11.9769 11.1478 12.8956L9.59694 11.7613C11.2639 10.5422 11.6947 10.2294 11.6916 10.2297ZM8.74997 11.1418L7.53062 10.25H9.96937L8.74997 11.1418Z" fill="currentColor" />
		</symbol>
		<symbol id="window" width="100%" height="100%" viewBox="0 0 15 16">
			<path d="M13.4667 13.6117H13.0333V0.692309C13.0333 0.30997 12.7234 0 12.341 0H1.81791C1.43548 0 1.1256 0.30997 1.1256 0.692309V13.6117H0.692309C0.309878 13.6117 0 13.9217 0 14.304V15.3078C0 15.6901 0.309878 16.0001 0.692309 16.0001H13.4668C13.8492 16.0001 14.1591 15.6901 14.1591 15.3078V14.304C14.159 13.9217 13.849 13.6117 13.4667 13.6117ZM8.63328 2.24613C8.75153 3.50788 9.06814 6.34644 9.66805 8.30992C10.0078 9.42196 10.3922 10.2661 10.7255 10.8739V12.6768H8.23322V2.24604H8.63328V2.24613ZM3.43321 10.7836C3.75472 10.1834 4.11832 9.36759 4.44149 8.31002C5.04149 6.34644 5.35801 3.50798 5.47626 2.24622H5.92552V12.677H3.43321V10.7836Z" fill="currentColor" />
		</symbol>
		<!--  -->
		<!--  -->
		<!--  -->


	</defs>
</svg>